<svg width="223.503" height="80.603" viewBox="0 0 223.503 80.603" xmlns="http://www.w3.org/2000/svg"><g id="svgGroup" stroke-linecap="round" fill-rule="evenodd" font-size="9pt" stroke="#ffffff" stroke-width="0.25mm" fill="#ffffff" style="stroke:#ffffff;stroke-width:0.25mm;fill:#ffffff"><path d="M 76.001 39.301 L 76.001 54.201 L 71.001 54.201 L 71.001 74.201 Q 66.601 76.701 58.151 78.651 Q 49.701 80.601 39.901 80.601 Q 24.653 80.601 14.79 74.052 A 32.793 32.793 0 0 1 10.601 70.751 Q 1.865 62.633 0.329 47.211 A 69.789 69.789 0 0 1 0.001 40.301 A 66.611 66.611 0 0 1 0.883 29.064 Q 3.051 16.426 10.551 9.601 A 34.29 34.29 0 0 1 23.778 2.272 Q 31.169 0.001 40.701 0.001 A 79.979 79.979 0 0 1 52.925 0.904 A 68.385 68.385 0 0 1 58.501 2.001 A 81.317 81.317 0 0 1 63.179 3.267 Q 68.081 4.763 71.001 6.501 L 71.001 30.401 L 46.001 30.401 L 46.001 25.701 A 15.962 15.962 0 0 0 45.871 23.58 Q 45.523 20.996 44.251 19.651 A 5.306 5.306 0 0 0 42.181 18.331 Q 41.323 18.017 40.257 17.889 A 13.084 13.084 0 0 0 38.701 17.801 A 12.346 12.346 0 0 0 36.676 17.956 Q 35.607 18.134 34.766 18.518 A 5.112 5.112 0 0 0 33.151 19.651 A 5.426 5.426 0 0 0 32.051 21.455 Q 31.442 23.037 31.404 25.385 A 19.524 19.524 0 0 0 31.401 25.701 L 31.401 54.901 A 15.962 15.962 0 0 0 31.532 57.023 Q 31.88 59.607 33.151 60.951 A 5.306 5.306 0 0 0 35.221 62.272 Q 36.08 62.586 37.146 62.714 A 13.084 13.084 0 0 0 38.701 62.801 A 12.346 12.346 0 0 0 40.727 62.647 Q 41.796 62.469 42.637 62.085 A 5.112 5.112 0 0 0 44.251 60.951 A 5.426 5.426 0 0 0 45.352 59.147 Q 45.961 57.566 45.999 55.218 A 19.524 19.524 0 0 0 46.001 54.901 L 46.001 54.201 L 40.601 54.201 L 40.601 39.301 L 76.001 39.301 Z M 124.401 62.801 L 124.401 54.601 L 144.301 54.601 L 144.301 79.201 L 78.201 79.201 L 78.201 64.801 L 109.001 17.801 L 98.601 17.801 L 98.601 26.001 L 78.701 26.001 L 78.701 1.401 L 142.701 1.401 L 142.701 15.801 L 112.001 62.801 L 124.401 62.801 Z M 174.191 79.568 A 56.03 56.03 0 0 0 185.301 80.601 A 65.361 65.361 0 0 0 188.731 80.513 Q 194.719 80.199 199.73 78.76 A 32.392 32.392 0 0 0 213.551 71.001 A 28.173 28.173 0 0 0 219.87 61.598 Q 221.811 57.029 222.714 51.26 A 70.996 70.996 0 0 0 223.501 40.301 A 73.291 73.291 0 0 0 222.915 30.738 Q 222.162 25.025 220.44 20.432 A 28.845 28.845 0 0 0 213.551 9.601 A 30.221 30.221 0 0 0 208.258 5.524 Q 203.108 2.391 196.412 1.035 A 56.03 56.03 0 0 0 185.301 0.001 A 65.361 65.361 0 0 0 181.871 0.089 Q 175.883 0.404 170.873 1.843 A 32.392 32.392 0 0 0 157.051 9.601 A 28.173 28.173 0 0 0 150.733 19.004 Q 148.792 23.574 147.888 29.342 A 70.996 70.996 0 0 0 147.101 40.301 A 73.291 73.291 0 0 0 147.687 49.865 Q 148.441 55.578 150.163 60.171 A 28.845 28.845 0 0 0 157.051 71.001 A 30.221 30.221 0 0 0 162.345 75.079 Q 167.495 78.212 174.191 79.568 Z M 192.101 55.401 L 192.101 25.201 A 13.497 13.497 0 0 0 191.959 23.172 Q 191.801 22.134 191.466 21.303 A 5.371 5.371 0 0 0 190.401 19.601 A 5.344 5.344 0 0 0 188.115 18.197 Q 187.257 17.919 186.215 17.836 A 11.576 11.576 0 0 0 185.301 17.801 A 10.208 10.208 0 0 0 183.354 17.975 Q 182.248 18.19 181.394 18.672 A 5.031 5.031 0 0 0 180.201 19.601 A 5.495 5.495 0 0 0 179.047 21.538 Q 178.74 22.388 178.606 23.441 A 13.949 13.949 0 0 0 178.501 25.201 L 178.501 55.401 A 14.136 14.136 0 0 0 178.636 57.425 Q 178.784 58.443 179.093 59.255 A 5.192 5.192 0 0 0 180.201 61.051 A 5.339 5.339 0 0 0 182.406 62.391 Q 183.264 62.673 184.31 62.761 A 11.796 11.796 0 0 0 185.301 62.801 A 10.208 10.208 0 0 0 187.249 62.628 Q 188.355 62.412 189.209 61.93 A 5.031 5.031 0 0 0 190.401 61.001 A 5.495 5.495 0 0 0 191.556 59.064 Q 191.863 58.215 191.997 57.162 A 13.949 13.949 0 0 0 192.101 55.401 Z" vector-effect="non-scaling-stroke"/></g></svg>